<?xml version="1.0" encoding="utf-8"?>
<!-- Generator: Adobe Illustrator 16.0.0, SVG Export Plug-In . SVG Version: 6.00 Build 0)  -->
<!DOCTYPE svg PUBLIC "-//W3C//DTD SVG 1.1//EN" "http://www.w3.org/Graphics/SVG/1.1/DTD/svg11.dtd">
<svg version="1.1" id="Capa_1" xmlns="http://www.w3.org/2000/svg" xmlns:xlink="http://www.w3.org/1999/xlink" x="0px" y="0px"
	 width="685.606px" height="685.606px" viewBox="501.04 -328.005 685.606 685.606"
	 enable-background="new 501.04 -328.005 685.606 685.606" xml:space="preserve">
<g>
	<path fill="#CE5D5D" d="M501.04,207.602c0,82.843,67.157,150,150,150h385.606c82.843,0,150-67.157,150-150v-385.606
		c0-82.843-67.157-150-150-150H651.04c-82.843,0-150,67.157-150,150V207.602z"/>
</g>
<g>
	<path fill="#C0785F" d="M972.814-66.031L863.341,296.2c-3.258,10.762-14.629,16.84-25.391,13.581
		c-6.516-1.975-11.606-7.065-13.581-13.581L715.751-60.941L972.814-66.031z"/>
	<path fill="#FBD836" d="M966.023-97.845L966.023-97.845c28.109-67.468-3.797-144.964-71.265-173.073
		c-67.469-28.109-144.965,3.797-173.073,71.265c-13.571,32.578-13.571,69.23,0,101.808v4.225c-22.489,0-40.724,18.233-40.724,40.723
		c0,22.489,18.234,40.723,40.724,40.723s40.723-18.233,40.723-40.723h0.428c2.249,22.265,22.134,38.493,44.408,36.244
		c19.943-2.015,35.419-18.315,36.396-38.34h0.429c1.119,22.418,20.209,39.684,42.627,38.555
		c21.664-1.08,38.666-18.997,38.605-40.683c0,22.49,18.233,40.723,40.723,40.723c22.49,0,40.723-18.233,40.723-40.723
		C1006.746-79.61,988.522-97.845,966.023-97.845z"/>
	<g>
		
			<rect x="854.997" y="-39.96" transform="matrix(0.7071 -0.7071 0.7071 0.7071 223.2134 620.0617)" fill="#A86953" width="10.18" height="161.096"/>
		
			<rect x="823.535" y="5.339" transform="matrix(0.7072 -0.7071 0.7071 0.7072 193.0743 606.4233)" fill="#A86953" width="10.181" height="129.578"/>
		
			<rect x="835.436" y="-1.139" transform="matrix(0.7071 -0.7071 0.7071 0.7071 250.3334 612.2617)" fill="#A86953" width="57.592" height="10.181"/>
	</g>
	<path d="M979.9-106.112c23.477-75.134-18.397-155.073-93.53-178.561c-75.134-23.488-155.074,18.397-178.552,93.53
		c-9.071,29.015-8.622,60.168,1.273,88.918c-27.243,6.923-43.728,34.625-36.804,61.869c5.742,22.591,26.083,38.392,49.397,38.372
		c0.468,0,0.905-0.122,1.364-0.143l91.627,301.269c4.906,16.137,21.969,25.237,38.117,20.321
		c9.742-2.963,17.357-10.588,20.321-20.321L965.953-6.28h0.072c28.108,0.031,50.923-22.744,50.954-50.853
		c0.021-22.805-15.129-42.841-37.078-49.041L979.9-106.112L979.9-106.112z M853.587,293.238c-1.649,5.376-7.34,8.399-12.715,6.75
		c-3.228-0.987-5.752-3.522-6.75-6.75L742.923-6.778c8.592-3.95,15.922-10.201,21.176-18.07c8.572,10.385,20.932,16.92,34.34,18.152
		l111.408,111.449l1.507-1.496L853.587,293.238z M823.433-10.495c8.113-3.604,15.158-9.254,20.423-16.4
		c5.263,7.146,12.308,12.797,20.423,16.4L843.855,9.929L823.433-10.495z M917.359,83.434L858.25,24.325l31.021-31.021
		c14.334-1.303,27.438-8.643,36.03-20.198c5.305,7.198,12.4,12.889,20.586,16.482L917.359,83.434z M966.023-26.58
		c-16.869,0-30.542-13.673-30.542-30.542h-20.362c0,16.869-13.673,30.542-30.542,30.542c-16.87,0-30.543-13.673-30.543-30.542
		h-20.361c0,16.869-13.674,30.542-30.543,30.542s-30.543-13.673-30.543-30.542h-20.361c0,1.445,0.306,2.81,0.428,4.226h-0.428
		c0,16.869-13.674,30.542-30.543,30.542s-30.542-13.673-30.542-30.542c0-16.87,13.673-30.542,30.542-30.542
		c5.621,0,10.181-4.562,10.181-10.181c0-0.031,0-0.072,0-0.102v-4.226c-0.011-1.313-0.274-2.605-0.784-3.818
		c-25.9-62.306,3.615-133.806,65.92-159.706c62.306-25.9,133.806,3.615,159.706,65.92c12.37,29.749,12.481,63.181,0.315,93.011
		c-2.596,4.988-0.651,11.138,4.337,13.724c1.436,0.743,3.033,1.14,4.662,1.15c16.87,0,30.543,13.673,30.543,30.542
		C996.566-40.253,982.893-26.58,966.023-26.58z"/>
	<rect x="818.43" y="5.353" transform="matrix(0.7071 -0.7071 0.7071 0.7071 193.1141 606.4815)" width="20.36" height="129.579"/>
</g>
</svg>
