<?xml version="1.0" encoding="iso-8859-1"?>
<!-- Generator: Adobe Illustrator 19.0.0, SVG Export Plug-In . SVG Version: 6.00 Build 0)  -->
<svg version="1.1" id="Capa_1" xmlns="http://www.w3.org/2000/svg" xmlns:xlink="http://www.w3.org/1999/xlink" x="0px" y="0px"
	 viewBox="0 0 511.999 511.999" style="enable-background:new 0 0 511.999 511.999;" xml:space="preserve">
<g>
	<path style="fill:#FFF6E1;" d="M340.66,201.051l-116.155,48.5c-13.112,5.475-28.179-0.716-33.654-13.828l0,0
		c-5.475-13.112,0.716-28.179,13.828-33.654l116.155-48.5c13.112-5.475,28.179,0.716,33.654,13.828l0,0
		C359.963,180.509,353.772,195.577,340.66,201.051z"/>
	<path style="fill:#FFF6E1;" d="M336.742,147.162l-136.717,57.086c-12.807,5.347-27.523-0.7-32.871-13.506l-0.461-1.105
		c-5.347-12.807,0.7-27.523,13.506-32.871L316.916,99.68c12.807-5.347,27.523,0.7,32.871,13.506l0.461,1.105
		C355.596,127.098,349.549,141.815,336.742,147.162z"/>
</g>
<path style="fill:#F4E4C6;" d="M343.453,135.929l-157.309,65.684c-2.355,0.983-4.772,1.584-7.187,1.842
	c6.339,3.219,13.993,3.747,21.068,0.794l136.717-57.086c7.33-3.061,12.44-9.193,14.472-16.277
	C349.014,132.965,346.412,134.693,343.453,135.929z"/>
<path style="fill:#FC7ED7;" d="M354.488,167.397c-5.475-13.112-20.542-19.303-33.654-13.828l-51.353,21.442V211.3h46.634
	l24.545-10.249C353.772,195.577,359.963,180.509,354.488,167.397L354.488,167.397z"/>
<path style="fill:#F75DC3;" d="M354.488,167.397L354.488,167.397c-5.475-13.112-20.542-19.303-33.654-13.828l-7.422,3.099
	c3.592,2.667,6.537,6.301,8.386,10.729l0,0c5.475,13.112-0.717,28.179-13.828,33.654L283.424,211.3h32.69l24.545-10.249
	C353.772,195.577,359.963,180.509,354.488,167.397z"/>
<path style="fill:#FFF6E1;" d="M316.493,99.819l-128.848,53.838c-3.5-9.855-3.213-17.248-2.729-21.291
	c5.286-44.195,77.663-52.393,98.895-110.872c1.608-4.43,2.657-8.416,3.335-11.481c0.445-2.012,2.841-2.866,4.456-1.585
	c33.89,26.867,49.756,57.898,40.953,76.576C330.771,88.79,323.712,95.722,316.493,99.819z"/>
<path style="fill:#F4E4C6;" d="M332.555,75.248c-1.785,3.787-8.843,10.72-16.062,14.816l-118.949,49.702
	c-5.584,2.333-11.918-1.291-12.616-7.303c-0.004-0.033-0.008-0.066-0.011-0.1c0,0.001,0,0.002,0,0.002
	c-0.484,4.043-0.77,11.436,2.729,21.291l128.848-53.838c7.219-4.096,14.278-11.029,16.062-14.816
	c2.249-4.771,2.878-10.351,2.018-16.458C334.197,70.915,333.538,73.162,332.555,75.248z"/>
<path style="fill:#F9CE65;" d="M346.62,237.04H165.381c-9.461,0-17.131-7.67-17.131-17.131v-1.218
	c0-9.461,7.67-17.131,17.131-17.131H346.62c9.461,0,17.131,7.67,17.131,17.131v1.218C363.751,229.37,356.081,237.04,346.62,237.04z"
	/>
<path style="fill:#F5B458;" d="M346.62,201.56h-44.328c9.461,0,17.131,7.67,17.131,17.131v1.218c0,9.461-7.67,17.131-17.131,17.131
	h44.328c9.461,0,17.131-7.67,17.131-17.131v-1.218C363.751,209.23,356.081,201.56,346.62,201.56z"/>
<path style="fill:#F9CE65;" d="M270.744,493.309l76.464-256.945H164.793l76.464,256.945
	C246.436,507.808,265.564,507.808,270.744,493.309z"/>
<path style="fill:#F5B458;" d="M347.208,236.364h-33.03H164.793l5.48,18.415h51.604c43.312,0,74.411,41.702,62.057,83.214
	l-44.448,149.362l1.771,5.953c5.179,14.498,24.307,14.498,29.487,0l70.984-238.53l0,0L347.208,236.364z"/>
<path style="fill:#FC7ED7;" d="M349.787,113.186c-5.347-12.807-20.064-18.854-32.871-13.506l-47.435,19.806v55.761l67.261-28.085
	c12.807-5.347,18.854-20.064,13.506-32.871L349.787,113.186z"/>
<path style="fill:#F75DC3;" d="M350.248,114.292l-0.462-1.105c-5.347-12.807-20.064-18.854-32.871-13.506l-0.44,0.184
	c5.709,2.504,10.503,7.116,13.095,13.322l0.462,1.105c5.347,12.807-0.7,27.523-13.506,32.871l-47.045,19.643v8.441l67.261-28.085
	C349.549,141.815,355.596,127.098,350.248,114.292z"/>
<path style="fill:#FC7ED7;" d="M291.602,8.427c-1.615-1.28-4.011-0.427-4.456,1.585c-0.678,3.065-1.727,7.051-3.335,11.481
	c-3.538,9.743-8.5,18.085-14.33,25.436v72.557l47.012-19.668c7.219-4.097,14.278-11.029,16.062-14.816
	C341.358,66.325,325.492,35.294,291.602,8.427z"/>
<path style="fill:#F75DC3;" d="M291.602,8.427c-1.615-1.28-4.011-0.427-4.456,1.585c-0.654,2.956-1.658,6.774-3.171,11.016
	c23.876,23.497,34.108,48.162,26.656,63.974c-1.785,3.787-5.231,8.439-12.45,12.535l-28.7,12.159v9.79l47.012-19.668
	c7.219-4.097,14.278-11.029,16.062-14.816C341.358,66.325,325.492,35.294,291.602,8.427z"/>
<path d="M358.174,196.592c6.384-9.113,8.122-21.201,3.527-32.206c-2.706-6.48-7.268-11.823-13.103-15.473
	c3.871-3.336,6.936-7.553,8.935-12.417c3.345-8.14,3.318-17.095-0.071-25.213L357,110.174c-3.717-8.901-10.911-15.315-19.352-18.326
	c0.729-1.137,1.406-2.3,1.978-3.513c10.633-22.56-6.716-57.134-43.168-86.034c-2.882-2.285-6.675-2.913-10.136-1.683
	c-3.467,1.231-6.011,4.11-6.808,7.706c-0.789,3.568-1.815,7.1-3.05,10.5c-1.474,4.057,0.621,8.542,4.679,10.016
	c4.06,1.474,8.541-0.621,10.016-4.678c0.558-1.535,1.079-3.094,1.563-4.667c28.985,25.036,38.587,49.819,32.763,62.175
	c-1.589,3.371-4.57,6.349-8.865,8.855l-123.705,52.409c-0.526-3.326-0.607-6.549-0.236-9.641
	c2.175-18.19,19.216-30.031,38.947-43.741c14.446-10.038,30.819-21.415,43.457-37.101c2.708-3.361,2.179-8.282-1.182-10.991
	c-3.364-2.708-8.284-2.179-10.991,1.183c-11.23,13.937-25.96,24.172-40.205,34.071c-21.877,15.201-42.54,29.559-45.55,54.723
	c-0.684,5.72-0.316,11.646,1.057,17.687l-1.025,0.428c-8.121,3.391-14.436,9.741-17.78,17.88c-3.345,8.14-3.319,17.095,0.073,25.218
	l0.461,1.102c0.076,0.183,0.167,0.357,0.247,0.538c-11.272,2.396-19.755,12.424-19.755,24.4v1.218
	c0,11.518,7.849,21.234,18.477,24.092l74.855,251.538c0.04,0.134,0.083,0.268,0.131,0.4c3.485,9.757,12.162,16.061,22.105,16.061
	c9.942,0,18.619-6.304,22.104-16.061c0.048-0.132,0.092-0.266,0.131-0.4l67.084-225.423c1.232-4.138-1.125-8.491-5.262-9.722
	c-4.142-1.234-8.491,1.126-9.722,5.262l-51.874,174.313l-37.36,25.416l-6.67-22.413l42.438-28.87
	c3.569-2.428,4.495-7.291,2.066-10.86c-2.427-3.568-7.289-4.496-10.86-2.066l-38.324,26.071l-6.618-22.239l42.925-29.201
	c3.569-2.428,4.495-7.291,2.066-10.86c-2.427-3.568-7.288-4.496-10.86-2.066l-38.811,26.402l-6.64-22.314l43.302-29.458
	c3.569-2.428,4.495-7.291,2.066-10.86c-2.427-3.568-7.289-4.496-10.86-2.066l-39.188,26.659l-6.29-21.135l45.412-30.893
	c3.569-2.428,4.495-7.291,2.066-10.86c-2.428-3.568-7.288-4.497-10.86-2.066l-41.298,28.094l-7.306-24.552l42.499-28.912
	c3.569-2.428,4.495-7.291,2.066-10.86c-2.428-3.569-7.289-4.495-10.86-2.066l-38.385,26.113l-8.704-29.25H346.62
	c13.756,0,24.947-11.191,24.947-24.947v-1.218C371.567,209.103,366.127,200.767,358.174,196.592z M173.868,173.375
	c1.758-4.277,5.075-7.614,9.342-9.396l136.717-57.086c8.808-3.678,18.969,0.497,22.645,9.302l0.462,1.108
	c1.782,4.267,1.795,8.972,0.038,13.25c-1.757,4.277-5.075,7.614-9.341,9.395l-12.335,5.15c-1.205,0.352-2.399,0.766-3.574,1.256
	l-113.491,47.388h-25.772c-1.8-1.672-3.232-3.716-4.192-6.017l-0.461-1.102C172.123,182.357,172.11,177.652,173.868,173.375z
	 M271.407,463.677l-8.086,27.174c-1.299,3.457-4.023,5.516-7.319,5.516c-3.297,0-6.021-2.058-7.32-5.516l-2.899-9.741
	L271.407,463.677z M355.933,219.909c0,4.213-2.814,7.777-6.66,8.924c-0.659-0.18-1.35-0.285-2.066-0.285H164.793
	c-0.705,0-1.394,0.105-2.059,0.287c-3.85-1.144-6.668-4.709-6.668-8.926v-1.218c0-5.136,4.178-9.314,9.314-9.314h10.386
	c0.011,0,0.023,0.003,0.034,0.003c0.014,0,0.029-0.003,0.044-0.003h29.982c0.028,0,0.056,0,0.084,0h0.481c0.028,0,0.056,0,0.084,0
	h66.194c4.318,0,7.817-3.5,7.817-7.817s-3.499-7.817-7.817-7.817H245.47l80.923-33.789c3.694-0.935,7.572-0.687,11.161,0.789
	c4.425,1.818,7.878,5.251,9.721,9.666c3.777,9.046-0.455,19.459-9.428,23.335h-32.342c-4.318,0-7.817,3.5-7.817,7.817
	s3.499,7.817,7.817,7.817h33.879c0.019,0,0.037,0.004,0.055,0.004c0.028,0,0.056-0.004,0.083-0.004h7.097
	c5.136,0,9.314,4.178,9.314,9.314V219.909z"/>
<g>
</g>
<g>
</g>
<g>
</g>
<g>
</g>
<g>
</g>
<g>
</g>
<g>
</g>
<g>
</g>
<g>
</g>
<g>
</g>
<g>
</g>
<g>
</g>
<g>
</g>
<g>
</g>
<g>
</g>
</svg>
