<?xml version="1.0" encoding="iso-8859-1"?>
<!-- Generator: Adobe Illustrator 18.0.0, SVG Export Plug-In . SVG Version: 6.00 Build 0)  -->
<!DOCTYPE svg PUBLIC "-//W3C//DTD SVG 1.1//EN" "http://www.w3.org/Graphics/SVG/1.1/DTD/svg11.dtd">
<svg version="1.1" id="Capa_1" xmlns="http://www.w3.org/2000/svg" xmlns:xlink="http://www.w3.org/1999/xlink" x="0px" y="0px"
	 viewBox="0 0 274.711 274.711" style="enable-background:new 0 0 274.711 274.711;" xml:space="preserve">
<g>
	<path d="M115.244,40.683c-0.033-0.02-0.068-0.054-0.101-0.075c0.246-0.629,0.292-1.348-0.049-2.052
		c-0.778-1.607-1.914-2.748-3.571-3.456c-2.007-0.859-4.625,0.093-4.576,2.626c0.084,4.333,2.687,7.371,7.06,7.525
		C116.502,45.338,117.256,41.907,115.244,40.683z"/>
	<path d="M118.657,23.799c-2.925-0.771-5.158,2.289-6.225,4.681c-1.005,2.252,2.137,4.236,3.386,1.979
		c1.088-1.966,3.126-2.621,3.97-4.668C120.119,24.986,119.422,24.001,118.657,23.799z"/>
	<path d="M127.463,31.994c-1.662-1.16-3.626-1.128-5.603-1.418c-2.718-0.398-3.979,3.481-1.169,4.24
		c2.179,0.588,4.043,1.381,6.282,0.924C128.845,35.359,128.791,32.92,127.463,31.994z"/>
	<path d="M134.332,13.465c-0.254-1.086-1.712-1.73-2.662-1.083c-1.895,1.289-2.533,3.332-4.804,4.275
		c-1.842,0.766-1.924,4.214,0.529,3.91C130.829,20.142,135.269,17.479,134.332,13.465z"/>
	<path d="M170.283,29.032c-1.412-1.774-3.96,0.485-3.01,2.322c1.18,2.281,2.275,5.044,4.262,6.717
		c1.477,1.242,3.995,0.105,3.401-1.98C174.169,33.39,172.016,31.209,170.283,29.032z"/>
	<path d="M169.983,41.405c-2.309,1.183-5.039,2.143-6.797,4.088c-1.23,1.361-0.059,3.993,1.922,3.302
		c2.678-0.934,4.648-3.091,6.801-4.894C173.353,42.691,171.513,40.62,169.983,41.405z"/>
	<path d="M164.453,36.284c-1.263-0.6-2.936-1.03-4.221-1.332c-0.087-0.036-0.125-0.133-0.223-0.153
		c-0.516-0.108-1.041-0.225-1.57-0.243c-1.02-0.034-1.703,0.702-2.053,1.562c-0.005,0.013-0.01,0.026-0.015,0.039
		c-0.364,0.895,0.253,1.935,0.981,2.411c1.783,1.166,4.27,0.956,6.268,0.787C165.087,39.232,166.068,37.051,164.453,36.284z"/>
	<path d="M161.049,62.618c-2.49-0.84-4.746-1.962-7.387-1.563c-1.895,0.286-1.791,2.87-0.49,3.746
		c2.09,1.408,4.92,1.266,7.371,1.551C162.773,66.613,162.969,63.266,161.049,62.618z"/>
	<path d="M118.56,99.861c-0.729-1.534-1.974-2.809-0.295-4.279c1.188-1.04-0.085-2.876-1.474-2.532
		c-4.799,1.189-4.751,10.008,0.811,9.167C118.712,102.05,118.952,100.686,118.56,99.861z"/>
	<path d="M123.386,92.995c-2.177,0.116-2.141,3.175,0,3.357c2.89,0.246,2.308,3.651,1.414,5.354
		c-0.667,1.27,0.485,3.398,2.097,2.727C132.917,101.927,129.248,92.68,123.386,92.995z"/>
	<path d="M110.067,107.926c-0.173,0.251-0.927-0.828-0.938-0.844c-0.655-0.949-2.062-1.061-2.693,0
		c-2.357,3.963,4.812,6.284,6.564,2.08C113.737,107.392,111.028,106.526,110.067,107.926z"/>
	<path d="M168.59,115.236c-0.939-0.789-2.682-0.347-2.612,1.081c0.043,0.873,0.138,2.498-1.403,2.398
		c-2.023-0.132-2.537,3.294-0.485,3.589C167.739,122.828,172.256,118.316,168.59,115.236z"/>
	<path d="M159.343,111.326c-1.001,1.413,1.178,2.998,2.357,1.818c0.691-0.692,2.025-0.048,2.829,0.067
		c1.095,0.157,2.06-0.616,1.791-1.791C165.508,107.882,160.932,109.084,159.343,111.326z"/>
	<path d="M170.905,104.318c-0.31,0.251-0.646,0.459-1.007,0.624c-1.043,0.676-1.939,0.082-2.687-1.781
		c0.358-1.876-2.232-2.606-2.865-0.79c-2.087,5.993,6.695,9.94,8.981,3.809C173.821,104.854,172.057,103.532,170.905,104.318z"/>
	<path d="M138.285,231.166c-1.108,1.142-1.978,2.396-2.859,3.648c-2.332-1.877-4.43-3.794-6.048-6.679
		c-0.668-1.192-2.427-0.141-1.821,1.065c1.458,2.9,3.628,5.894,6.359,7.936c-0.837,1.477-1.63,2.979-2.232,4.64
		c-0.399,1.103,1.34,1.561,1.748,0.482c0.553-1.464,1.286-2.832,2.042-4.183c0.654,0.366,1.287,0.778,1.996,1.013
		c0.986,0.326,1.91-1.129,1.055-1.813c-0.589-0.471-1.152-0.909-1.72-1.353c0.826-1.233,1.66-2.462,2.657-3.581
		C140.169,231.548,139.037,230.391,138.285,231.166z"/>
	<path d="M178.328,125.923c-0.22-0.638-0.881-1.104-1.651-0.685c1.78-0.968,1.864-0.854,2.905-3.318
		c0.441-1.043,0.79-2.114,1.093-3.204c0.815-2.934,1.174-5.988,1.063-9.033c-0.209-5.697-2.086-11.044-5.229-15.74
		c7.178-4.841,5.143-14.34-0.197-19.972c0.175-0.156,0.354-0.302,0.505-0.529c23.397-35.312-0.403-77.672-43.231-73.101
		c-29.838,3.185-55.232,37.619-36.582,64.618c-0.298,0.328-0.409,0.833-0.014,1.174c0.677,0.584,1.506,1.171,2.265,1.785
		c0.314,0.378,0.538,0.772,0.871,1.145c0.139,0.156,0.293,0.154,0.442,0.227c0.411,0.582,0.687,1.197,0.518,1.906
		c-0.407,1.707-2.847,2.981-4.013,4.235c-2.512,2.703-4.557,5.811-5.991,9.214c-1.872,4.444-4.19,11.901-0.095,15.818
		c1.43,1.368,3.278,1.912,5.175,2.014c-4.929,7.707-5.9,18.771-2.361,27.169c-3.782,2.193-4.982,6.854-3.543,11.387
		c1.28,4.031,4.319,7.157,6.47,10.712c3.802,6.285,4.433,12.409,5.807,19.414c0.285,1.453,2.728,1.496,2.979,0
		c0.001-0.009,0-0.017,0.002-0.026c0.364,0.285,0.76,0.499,1.166,0.68c3.681,34.748,14.887,68.824,27.751,101.14
		c0.865,2.174,4.025,2.509,4.768,0c11.85-39.961,23.857-79.878,34.923-120.065c0.024-0.013,0.05-0.017,0.074-0.03
		c4.134-2.259,6.004-6.8,7.529-11.012c1.465-4.044,2.968-9.174,0.211-13.066C181.041,127.513,179.745,126.483,178.328,125.923z
		 M93.846,89.944c0.325-2.815,2.066-5.852,3.58-8.219c2.304-3.602,7.216-6.072,8.034-10.295c0.168-0.865-0.135-1.532-0.829-2.038
		c-0.777-0.565-1.572-1.104-2.362-1.652c-0.019-0.107,0.026-0.211-0.02-0.316C89.858,38.933,101.943,7.91,136.228,5.75
		c15.647-0.986,32.845,4.812,40.372,19.581c7.85,15.404,2.591,31.12-3.889,45.712c-0.089,0.201-0.103,0.391-0.144,0.586
		c-1.922,0.205-3.152,2.792-1.018,4.434c2.536,1.951,5.185,5.059,5.054,8.532c-0.199,5.297-5.549,7.717-10.07,5.007
		c-3.163-1.896-5.005-5.476-7.481-8.092c-3.163-3.342-7.141-5.775-11.528-5.289c-5.181-1.762-6.984,3.93-11.159,5.848
		c-6.385,2.933-11.339-5.511-17.771-3.999c-0.446-0.442-1.081-0.714-1.895-0.553c-10.266,2.026-8.844,13.856-15.845,19.114
		C95.732,100.481,93.234,95.241,93.846,89.944z M155.028,202.276c-2.609,8.66-5.18,17.332-7.75,26.003
		c-2.278,7.689-3.84,24.311-8.992,30.351c-6.019,7.057-3.763,1.345-6.994-7.76c-2.975-8.382-5.7-16.837-8.197-25.374
		c-5.147-17.596-8.659-35.489-12.965-53.276c2.332-0.355,4.603-1.859,5.758-4.178c2.096-4.21,0.287-9.097-0.47-13.367
		c-1.565-8.834,0.908-20.929,12.56-19.124c0.366,0.057,0.717-0.04,1.016-0.222c2.359,1.053,4.662,2.626,7.033,3.939
		c-3.992,4.611-7.731,9.425-11.409,14.286c-1.131-0.334-2.288,0.885-1.368,1.819c-1.493,1.989-3.004,3.965-4.485,5.963
		c-0.618,0.833,0.782,1.923,1.446,1.116c1.543-1.875,3.057-3.771,4.59-5.655c2.978,2.574,5.968,5.29,8.983,7.996
		c-3.369,4.308-6.658,8.685-9.824,13.113c-0.566-0.475-1.164-0.982-1.591-1.324c0.371-0.309,0.497-0.755,0.278-1.21
		c-0.595-1.233-1.321-1.67-2.62-1.328c-0.381,0.101-0.788,0.452-0.858,0.858c-0.381,2.212,0.963,4.163,2.756,5.885
		c-2.025,2.862-4.047,5.729-6.021,8.553c-0.516,0.738,0.701,1.694,1.26,0.972c2.1-2.715,4.277-5.383,6.448-8.053
		c1.377,1.122,2.789,2.14,3.788,3.052c1.916,1.75,3.867,3.739,5.861,5.707c-2.932,4.107-5.791,8.258-8.507,12.467
		c-0.116,0.181-0.089,0.338-0.089,0.5c-0.443,0.379-0.687,0.981-0.279,1.52c2.793,3.7,5.925,7.464,9.397,10.807
		c-2.769,3.9-5.604,7.753-8.292,11.717c-0.613,0.903,0.806,1.671,1.437,0.839c2.82-3.715,5.489-7.534,8.227-11.302
		c2.192,1.968,4.48,3.8,6.996,5.205c1.253,0.7,2.661-0.998,1.566-2.03c-2.169-2.042-4.37-3.984-6.555-5.933
		c1.801-2.506,3.684-4.952,5.45-7.488c0.752-1.078-0.985-2.047-1.744-1.02c-1.758,2.38-3.4,4.838-5.123,7.239
		c-3.203-2.89-6.326-5.853-9.143-9.264c2.85-3.807,5.794-7.535,8.713-11.283c2.456,2.305,5.014,4.455,7.772,5.937
		c1.07,0.575,2.584-0.655,1.788-1.788c-0.564-0.803-3.572-3.698-7.271-7.112c3.556-4.539,7.073-9.11,10.631-13.647
		c1.035,0.708,2.028,1.514,3.089,2.157c1.417,0.858,2.81-1.071,1.728-2.24c-0.841-0.909-1.83-1.718-2.729-2.587
		c1.664-2.132,3.352-4.245,4.998-6.392c0.706-0.92-0.803-2.03-1.586-1.224c-1.825,1.879-3.552,3.863-5.299,5.826
		c-3.088-2.799-6.327-5.493-9.723-8.049c2.574-3.144,5.089-6.326,7.571-9.53c3.616,3.115,7.317,6.122,11.242,8.731
		c1.464,0.973,3.07-1.195,1.854-2.403c-3.352-3.329-7.059-6.35-10.853-9.269c1.047-1.385,2.143-2.739,3.16-4.143
		c0.647-0.894-0.742-1.885-1.493-1.152c-1.244,1.213-2.386,2.57-3.593,3.837c-2.997-2.27-6.014-4.508-8.934-6.793
		c-1.368-1.07-3.33,0.784-1.954,1.953c2.834,2.41,5.645,4.922,8.482,7.408c-2.779,3.044-5.477,6.175-8.089,9.419
		c-3.256-2.408-6.516-4.79-9.631-7.195c3.804-4.72,7.55-9.485,11.038-14.447c0.056-0.079,0.022-0.159,0.046-0.241
		c2.054,0.994,4.175,1.691,6.448,1.563c2.398-0.134,2.816-0.884,4.899-1.651c0.796-0.576,1.46-1.292,1.99-2.15
		c8.295-3.457,12.357-1.695,12.185,5.286c0.186,3.714-1.67,7.41,1.568,10.291c1.817,1.617,3.588,1.707,5.269,0.702
		C164.839,170.12,159.879,186.179,155.028,202.276z M136.203,166.949c3.136,2.765,6.37,5.357,9.672,7.789
		c-3.661,4.279-7.102,8.757-10.444,13.306c-3.29-3-6.826-6.152-9.604-8.548C129.27,175.305,132.745,171.133,136.203,166.949z
		 M177.056,142.066c-1.087,2.821-2.454,5.475-4.492,7.101c-0.506,0.051-0.967,0.325-1.276,0.818
		c-1.01,0.517-2.153,0.822-3.484,0.806c-2.485-1.32-0.938-8.538-1.08-9.796c-0.188-1.668-0.695-3.462-1.546-4.93
		c-1.671-2.88-4.494-4.922-7.842-5.285c-3.529-0.383-4.743,1.106-7.57,2.437c-2.269,3.751-6.05,4.834-11.342,3.249
		c-1.639-0.895-3.288-1.77-4.949-2.625c-2.459-1.068-3.352-1.23-5.949-1.574c-0.1-0.013-0.147,0.059-0.234,0.069
		c-5.192-1.408-10.407,1.033-13.479,5.708c-2.235,3.402-2.958,7.468-2.848,11.482c0.057,2.092,0.372,4.113,0.787,6.159
		c0.398,1.603,0.77,3.212,1.116,4.826c0.061,5.687-1.15,8.538-3.585,8.662c-0.438-0.85-1.531-0.989-2.251-0.506
		c-0.412-0.183-0.824-0.367-1.28-0.648c0.189-4.899-0.98-9.659-3.023-14.249c-2.104-4.727-12.766-15.793-7.006-21.285
		c0.976,0.23,1.989-0.629,2.148-1.758c0.275-0.452,0.255-0.951-0.029-1.394c-0.688-4.77-1.604-9.238-1.149-14.129
		c0.416-4.463,1.729-8.801,2.948-13.107c1.292-0.369,2.534-0.885,3.578-1.654c6.769-4.983,5.86-16.074,14.58-18.945
		c0.527-0.174,0.867-0.484,1.104-0.839c5.93-0.651,10.113,7.798,16.685,6.349c4.713-1.039,7.209-5.812,11.684-7.445
		c10.167-0.202,14.227,19.208,25.521,16.203c3.185,5.426,4.802,11.352,4.311,17.708c-0.313,4.045-3.121,8.467-2.9,12.425
		c-0.32,0.14-0.638,0.294-0.942,0.514c-1.187,0.857-0.788,2.682,0.75,2.768C181.498,129.602,178.787,137.576,177.056,142.066z"/>
</g>
<g>
</g>
<g>
</g>
<g>
</g>
<g>
</g>
<g>
</g>
<g>
</g>
<g>
</g>
<g>
</g>
<g>
</g>
<g>
</g>
<g>
</g>
<g>
</g>
<g>
</g>
<g>
</g>
<g>
</g>
</svg>
