<?xml version="1.0" encoding="iso-8859-1"?>
<!-- Generator: Adobe Illustrator 19.0.0, SVG Export Plug-In . SVG Version: 6.00 Build 0)  -->
<svg version="1.1" id="Capa_1" xmlns="http://www.w3.org/2000/svg" xmlns:xlink="http://www.w3.org/1999/xlink" x="0px" y="0px"
	 viewBox="0 0 512.003 512.003" style="enable-background:new 0 0 512.003 512.003;" xml:space="preserve">
<path style="fill:#C0785F;" d="M363.899,188.379l-91.586,303.045c-2.726,9.003-12.239,14.088-21.242,11.362
	c-5.451-1.652-9.71-5.911-11.362-11.362l-90.871-298.787L363.899,188.379z"/>
<path style="fill:#FBD836;" d="M358.218,161.763L358.218,161.763c23.516-56.444-3.177-121.278-59.621-144.794
	S177.319,20.146,153.803,76.59c-11.354,27.255-11.354,57.918,0,85.173v3.535c-18.815,0-34.069,15.254-34.069,34.069
	s15.254,34.069,34.069,34.069s34.069-15.254,34.069-34.069h0.358c1.882,18.627,18.517,32.204,37.152,30.322
	c16.685-1.686,29.632-15.323,30.449-32.076h0.358c0.937,18.755,16.907,33.2,35.662,32.255c18.125-0.903,32.349-15.893,32.298-34.035
	c0,18.815,15.254,34.069,34.069,34.069s34.069-15.254,34.069-34.069S377.041,161.763,358.218,161.763z"/>
<g>
	
		<rect x="265.328" y="210.189" transform="matrix(-0.7071 0.7071 -0.7071 -0.7071 656.4902 283.2272)" style="fill:#A86953;" width="8.517" height="134.776"/>
	
		<rect x="239.006" y="248.086" transform="matrix(-0.7071 0.7071 -0.7071 -0.7071 629.0305 344.0269)" style="fill:#A86953;" width="8.517" height="108.407"/>
	
		<rect x="248.963" y="242.668" transform="matrix(-0.7071 0.7071 -0.7071 -0.7071 640.7367 228.4521)" style="fill:#A86953;" width="48.182" height="8.517"/>
</g>
<path d="M369.827,154.847c19.641-62.858-15.391-129.735-78.248-149.385S161.843,20.853,142.202,83.71
	c-7.589,24.274-7.214,50.337,1.065,74.39c-22.792,5.792-36.582,28.967-30.79,51.76c4.804,18.9,21.821,32.119,41.326,32.102
	c0.392,0,0.758-0.102,1.141-0.119L231.6,493.886c4.105,13.5,18.38,21.114,31.889,17.001c8.151-2.479,14.522-8.858,17.001-17.001
	l77.669-255.519h0.06c23.516,0.026,42.603-19.028,42.629-42.544c0.017-19.079-12.657-35.841-31.02-41.028L369.827,154.847
	L369.827,154.847z M264.153,488.946c-1.38,4.497-6.141,7.027-10.638,5.647c-2.7-0.826-4.812-2.947-5.647-5.647L171.57,237.95
	c7.189-3.305,13.321-8.534,17.716-15.118c7.172,8.688,17.512,14.156,28.729,15.186l93.205,93.239l1.261-1.252L264.153,488.946z
	 M238.925,234.841c6.788-3.015,12.682-7.742,17.086-13.721c4.403,5.979,10.297,10.706,17.086,13.721l-17.086,17.086L238.925,234.841
	z M317.505,313.422l-49.451-49.451l25.952-25.952c11.992-1.09,22.954-7.231,30.143-16.898c4.438,6.022,10.374,10.783,17.222,13.789
	L317.505,313.422z M358.218,221.384c-14.113,0-25.552-11.439-25.552-25.552h-17.035c0,14.113-11.439,25.552-25.552,25.552
	s-25.552-11.439-25.552-25.552h-17.035c0,14.113-11.439,25.552-25.552,25.552c-14.113,0-25.552-11.439-25.552-25.552h-17.035
	c0,1.209,0.256,2.351,0.358,3.535h-0.358c0,14.113-11.439,25.552-25.552,25.552s-25.552-11.439-25.552-25.552
	c0-14.113,11.439-25.552,25.552-25.552c4.702,0,8.517-3.816,8.517-8.517c0-0.026,0-0.06,0-0.085v-3.535
	c-0.009-1.099-0.23-2.18-0.656-3.194c-21.668-52.126,3.024-111.943,55.149-133.611s111.943,3.024,133.611,55.149
	c10.349,24.888,10.442,52.858,0.264,77.814c-2.172,4.173-0.545,9.318,3.628,11.481c1.201,0.622,2.538,0.954,3.901,0.962
	c14.113,0,25.552,11.439,25.552,25.552C383.77,209.945,372.331,221.384,358.218,221.384z"/>
<rect x="234.736" y="248.098" transform="matrix(-0.7071 0.7071 -0.7071 -0.7071 629.0184 344.0559)" width="17.034" height="108.407"/>
<g>
</g>
<g>
</g>
<g>
</g>
<g>
</g>
<g>
</g>
<g>
</g>
<g>
</g>
<g>
</g>
<g>
</g>
<g>
</g>
<g>
</g>
<g>
</g>
<g>
</g>
<g>
</g>
<g>
</g>
</svg>
